<svg xmlns="http://www.w3.org/2000/svg" xmlns:xlink="http://www.w3.org/1999/xlink" width="507" zoomAndPan="magnify" viewBox="0 0 380.25 73.499998" height="98" preserveAspectRatio="xMidYMid meet" version="1.0"><defs><g/><clipPath id="a29464dca5"><path d="M 0.914062 0 L 378.59375 0 L 378.59375 73.003906 L 0.914062 73.003906 Z M 0.914062 0 " clip-rule="nonzero"/></clipPath><clipPath id="bb7bfa31ca"><path d="M 7 21.035156 L 25 21.035156 L 25 51.578125 L 7 51.578125 Z M 7 21.035156 " clip-rule="nonzero"/></clipPath></defs><g clip-path="url(#a29464dca5)"><path fill="#ffffff" d="M 0.914062 0 L 378.59375 0 L 378.59375 73.003906 L 0.914062 73.003906 Z M 0.914062 0 " fill-opacity="1" fill-rule="nonzero"/></g><g clip-path="url(#bb7bfa31ca)"><path fill="#000000" d="M 24.574219 22.632812 C 24.570312 22.625 24.5625 22.613281 24.554688 22.605469 C 23.933594 21.636719 22.824219 21.035156 21.660156 21.035156 C 20.386719 21.035156 19.296875 21.632812 18.746094 22.632812 C 18.617188 22.867188 18.699219 23.15625 18.925781 23.289062 L 21 24.476562 L 19.394531 26.820312 L 13.667969 26.820312 L 12.042969 22.617188 L 7.371094 22.617188 L 7.371094 23.59375 L 11.371094 23.59375 L 12.617188 26.820312 L 9.875 26.820312 C 9.71875 26.820312 9.578125 26.890625 9.480469 27.019531 C 9.382812 27.152344 9.363281 27.304688 9.410156 27.457031 C 9.863281 28.882812 10.109375 30.476562 10.109375 32.054688 C 10.0625 33.253906 9.785156 34.441406 9.519531 35.585938 C 9.335938 36.351562 9.167969 37.070312 9.070312 37.78125 C 9.070312 37.785156 9.070312 37.785156 9.070312 37.792969 C 8.890625 39.394531 9.414062 40.988281 10.558594 42.273438 C 11.785156 43.648438 13.582031 44.519531 15.453125 44.660156 L 15.453125 50.601562 L 13.253906 50.601562 C 12.984375 50.601562 12.765625 50.824219 12.765625 51.089844 C 12.765625 51.355469 12.984375 51.578125 13.253906 51.578125 L 18.628906 51.578125 C 18.894531 51.578125 19.113281 51.355469 19.113281 51.089844 C 19.113281 50.824219 18.894531 50.601562 18.628906 50.601562 L 16.425781 50.601562 L 16.425781 44.660156 C 18.289062 44.546875 20.09375 43.679688 21.316406 42.3125 C 22.457031 41.027344 22.992188 39.429688 22.804688 37.800781 C 22.726562 36.785156 22.476562 35.8125 22.246094 34.871094 C 21.996094 33.863281 21.757812 32.917969 21.757812 32.058594 C 21.757812 30.476562 21.996094 28.882812 22.457031 27.449219 C 22.503906 27.300781 22.476562 27.136719 22.386719 27.015625 C 22.296875 26.890625 22.148438 26.8125 21.992188 26.8125 L 20.5625 26.8125 L 21.835938 24.957031 L 23.894531 26.136719 C 23.964844 26.183594 24.050781 26.203125 24.132812 26.203125 C 24.179688 26.203125 24.226562 26.195312 24.265625 26.183594 C 24.386719 26.152344 24.496094 26.066406 24.554688 25.949219 C 25.140625 24.929688 25.140625 23.65625 24.574219 22.632812 Z M 13 27.792969 L 15.695312 34.746094 L 10.714844 34.746094 C 10.902344 33.882812 11.050781 33 11.089844 32.085938 C 11.089844 32.078125 11.089844 32.074219 11.089844 32.066406 C 11.089844 30.613281 10.894531 29.152344 10.53125 27.792969 Z M 21.835938 37.882812 C 21.835938 37.894531 21.835938 37.902344 21.835938 37.910156 C 21.992188 39.261719 21.550781 40.589844 20.589844 41.667969 C 19.453125 42.949219 17.726562 43.707031 15.980469 43.707031 C 14.199219 43.707031 12.445312 42.929688 11.285156 41.625 C 10.332031 40.550781 9.890625 39.234375 10.039062 37.910156 C 10.128906 37.246094 10.292969 36.550781 10.464844 35.804688 C 10.472656 35.773438 10.480469 35.746094 10.484375 35.714844 L 16.0625 35.714844 L 16.0625 35.722656 L 16.078125 35.714844 L 21.453125 35.714844 C 21.621094 36.429688 21.777344 37.15625 21.835938 37.882812 Z M 21.347656 27.792969 C 20.984375 29.152344 20.789062 30.613281 20.789062 32.066406 C 20.789062 32.929688 20.984375 33.820312 21.21875 34.746094 L 16.730469 34.746094 L 14.039062 27.792969 Z M 23.914062 25.027344 L 19.882812 22.714844 C 20.304688 22.269531 20.941406 22.007812 21.660156 22.007812 C 22.492188 22.007812 23.285156 22.429688 23.730469 23.117188 C 24.042969 23.695312 24.109375 24.40625 23.914062 25.027344 Z M 23.914062 25.027344 " fill-opacity="1" fill-rule="nonzero"/></g><path fill="#000000" d="M 17.40625 42.625 C 17.464844 42.625 17.523438 42.609375 17.582031 42.605469 C 18.90625 42.078125 19.972656 41.027344 20.503906 39.714844 C 20.609375 39.460938 20.484375 39.183594 20.238281 39.078125 C 19.984375 38.972656 19.707031 39.097656 19.601562 39.34375 C 19.171875 40.410156 18.304688 41.257812 17.226562 41.6875 C 16.980469 41.785156 16.855469 42.066406 16.953125 42.316406 C 17.03125 42.507812 17.210938 42.625 17.40625 42.625 Z M 17.40625 42.625 " fill-opacity="1" fill-rule="nonzero"/><g fill="#000000" fill-opacity="1"><g transform="translate(25.605473, 51.745404)"><g><path d="M 15.203125 -29.578125 C 17.003906 -29.578125 18.484375 -29.3125 19.640625 -28.78125 C 20.804688 -28.25 21.835938 -27.628906 22.734375 -26.921875 C 23.285156 -26.503906 23.703125 -26.453125 23.984375 -26.765625 C 24.273438 -27.085938 24.472656 -27.832031 24.578125 -29 L 25.53125 -29 C 25.46875 -27.988281 25.421875 -26.757812 25.390625 -25.3125 C 25.367188 -23.863281 25.359375 -21.953125 25.359375 -19.578125 L 24.421875 -19.578125 C 24.222656 -20.753906 24.039062 -21.691406 23.875 -22.390625 C 23.71875 -23.085938 23.519531 -23.679688 23.28125 -24.171875 C 23.050781 -24.660156 22.75 -25.148438 22.375 -25.640625 C 21.519531 -26.765625 20.453125 -27.578125 19.171875 -28.078125 C 17.890625 -28.585938 16.539062 -28.84375 15.125 -28.84375 C 13.78125 -28.84375 12.566406 -28.503906 11.484375 -27.828125 C 10.410156 -27.160156 9.484375 -26.195312 8.703125 -24.9375 C 7.921875 -23.6875 7.316406 -22.171875 6.890625 -20.390625 C 6.472656 -18.617188 6.265625 -16.628906 6.265625 -14.421875 C 6.265625 -12.128906 6.492188 -10.097656 6.953125 -8.328125 C 7.421875 -6.566406 8.070312 -5.085938 8.90625 -3.890625 C 9.738281 -2.691406 10.722656 -1.785156 11.859375 -1.171875 C 12.992188 -0.554688 14.21875 -0.25 15.53125 -0.25 C 16.757812 -0.25 18.039062 -0.492188 19.375 -0.984375 C 20.71875 -1.472656 21.769531 -2.265625 22.53125 -3.359375 C 23.132812 -4.148438 23.550781 -5.007812 23.78125 -5.9375 C 24.007812 -6.863281 24.222656 -8.160156 24.421875 -9.828125 L 25.359375 -9.828125 C 25.359375 -7.347656 25.367188 -5.347656 25.390625 -3.828125 C 25.421875 -2.316406 25.46875 -1.039062 25.53125 0 L 24.578125 0 C 24.472656 -1.175781 24.289062 -1.910156 24.03125 -2.203125 C 23.769531 -2.503906 23.335938 -2.46875 22.734375 -2.09375 C 21.722656 -1.382812 20.648438 -0.757812 19.515625 -0.21875 C 18.390625 0.3125 16.9375 0.578125 15.15625 0.578125 C 12.5625 0.578125 10.285156 -0.0078125 8.328125 -1.1875 C 6.378906 -2.363281 4.863281 -4.054688 3.78125 -6.265625 C 2.707031 -8.484375 2.171875 -11.144531 2.171875 -14.25 C 2.171875 -17.3125 2.726562 -19.988281 3.84375 -22.28125 C 4.96875 -24.582031 6.503906 -26.375 8.453125 -27.65625 C 10.410156 -28.9375 12.660156 -29.578125 15.203125 -29.578125 Z M 15.203125 -29.578125 "/></g></g></g><g fill="#000000" fill-opacity="1"><g transform="translate(53.77884, 51.745404)"><g><path d="M 15.203125 -29.578125 C 17.796875 -29.578125 20.066406 -28.988281 22.015625 -27.8125 C 23.972656 -26.644531 25.488281 -24.957031 26.5625 -22.75 C 27.644531 -20.550781 28.1875 -17.882812 28.1875 -14.75 C 28.1875 -11.6875 27.632812 -9.007812 26.53125 -6.71875 C 25.425781 -4.425781 23.890625 -2.632812 21.921875 -1.34375 C 19.953125 -0.0625 17.695312 0.578125 15.15625 0.578125 C 12.5625 0.578125 10.285156 -0.0078125 8.328125 -1.1875 C 6.378906 -2.363281 4.863281 -4.054688 3.78125 -6.265625 C 2.707031 -8.484375 2.171875 -11.144531 2.171875 -14.25 C 2.171875 -17.3125 2.726562 -19.988281 3.84375 -22.28125 C 4.96875 -24.582031 6.503906 -26.375 8.453125 -27.65625 C 10.410156 -28.9375 12.660156 -29.578125 15.203125 -29.578125 Z M 15.03125 -28.84375 C 13.257812 -28.84375 11.71875 -28.226562 10.40625 -27 C 9.09375 -25.769531 8.070312 -24.078125 7.34375 -21.921875 C 6.625 -19.765625 6.265625 -17.265625 6.265625 -14.421875 C 6.265625 -11.523438 6.664062 -9.003906 7.46875 -6.859375 C 8.28125 -4.710938 9.375 -3.054688 10.75 -1.890625 C 12.132812 -0.734375 13.660156 -0.15625 15.328125 -0.15625 C 17.097656 -0.15625 18.640625 -0.769531 19.953125 -2 C 21.265625 -3.226562 22.28125 -4.925781 23 -7.09375 C 23.726562 -9.269531 24.09375 -11.765625 24.09375 -14.578125 C 24.09375 -17.503906 23.6875 -20.03125 22.875 -22.15625 C 22.070312 -24.289062 20.988281 -25.9375 19.625 -27.09375 C 18.257812 -28.257812 16.726562 -28.84375 15.03125 -28.84375 Z M 15.03125 -28.84375 "/></g></g></g><g fill="#000000" fill-opacity="1"><g transform="translate(84.122533, 51.745404)"><g><path d="M 15.203125 -29.578125 C 17.003906 -29.578125 18.484375 -29.3125 19.640625 -28.78125 C 20.804688 -28.25 21.835938 -27.628906 22.734375 -26.921875 C 23.285156 -26.503906 23.703125 -26.453125 23.984375 -26.765625 C 24.273438 -27.085938 24.472656 -27.832031 24.578125 -29 L 25.53125 -29 C 25.46875 -27.988281 25.421875 -26.757812 25.390625 -25.3125 C 25.367188 -23.863281 25.359375 -21.953125 25.359375 -19.578125 L 24.421875 -19.578125 C 24.222656 -20.753906 24.039062 -21.691406 23.875 -22.390625 C 23.71875 -23.085938 23.519531 -23.679688 23.28125 -24.171875 C 23.050781 -24.660156 22.75 -25.148438 22.375 -25.640625 C 21.519531 -26.765625 20.453125 -27.578125 19.171875 -28.078125 C 17.890625 -28.585938 16.539062 -28.84375 15.125 -28.84375 C 13.78125 -28.84375 12.566406 -28.503906 11.484375 -27.828125 C 10.410156 -27.160156 9.484375 -26.195312 8.703125 -24.9375 C 7.921875 -23.6875 7.316406 -22.171875 6.890625 -20.390625 C 6.472656 -18.617188 6.265625 -16.628906 6.265625 -14.421875 C 6.265625 -12.128906 6.492188 -10.097656 6.953125 -8.328125 C 7.421875 -6.566406 8.070312 -5.085938 8.90625 -3.890625 C 9.738281 -2.691406 10.722656 -1.785156 11.859375 -1.171875 C 12.992188 -0.554688 14.21875 -0.25 15.53125 -0.25 C 16.757812 -0.25 18.039062 -0.492188 19.375 -0.984375 C 20.71875 -1.472656 21.769531 -2.265625 22.53125 -3.359375 C 23.132812 -4.148438 23.550781 -5.007812 23.78125 -5.9375 C 24.007812 -6.863281 24.222656 -8.160156 24.421875 -9.828125 L 25.359375 -9.828125 C 25.359375 -7.347656 25.367188 -5.347656 25.390625 -3.828125 C 25.421875 -2.316406 25.46875 -1.039062 25.53125 0 L 24.578125 0 C 24.472656 -1.175781 24.289062 -1.910156 24.03125 -2.203125 C 23.769531 -2.503906 23.335938 -2.46875 22.734375 -2.09375 C 21.722656 -1.382812 20.648438 -0.757812 19.515625 -0.21875 C 18.390625 0.3125 16.9375 0.578125 15.15625 0.578125 C 12.5625 0.578125 10.285156 -0.0078125 8.328125 -1.1875 C 6.378906 -2.363281 4.863281 -4.054688 3.78125 -6.265625 C 2.707031 -8.484375 2.171875 -11.144531 2.171875 -14.25 C 2.171875 -17.3125 2.726562 -19.988281 3.84375 -22.28125 C 4.96875 -24.582031 6.503906 -26.375 8.453125 -27.65625 C 10.410156 -28.9375 12.660156 -29.578125 15.203125 -29.578125 Z M 15.203125 -29.578125 "/></g></g></g><g fill="#000000" fill-opacity="1"><g transform="translate(112.2959, 51.745404)"><g><path d="M 25.203125 -29 L 25.203125 -28.1875 C 24.347656 -28.070312 23.523438 -27.796875 22.734375 -27.359375 C 21.941406 -26.929688 21.148438 -26.210938 20.359375 -25.203125 L 12.453125 -15.078125 L 13.359375 -17.078125 L 23.1875 -3.3125 C 23.65625 -2.632812 24.160156 -2.101562 24.703125 -1.71875 C 25.253906 -1.332031 25.953125 -1.03125 26.796875 -0.8125 L 26.796875 0 C 26.140625 -0.0507812 25.328125 -0.0820312 24.359375 -0.09375 C 23.390625 -0.113281 22.5625 -0.125 21.875 -0.125 C 21.414062 -0.125 20.847656 -0.113281 20.171875 -0.09375 C 19.503906 -0.0820312 18.664062 -0.0507812 17.65625 0 L 17.65625 -0.8125 C 18.582031 -0.875 19.164062 -1.039062 19.40625 -1.3125 C 19.65625 -1.582031 19.5625 -2.03125 19.125 -2.65625 L 13.15625 -11.671875 C 12.601562 -12.523438 12.113281 -13.160156 11.6875 -13.578125 C 11.269531 -14.003906 10.832031 -14.285156 10.375 -14.421875 C 9.925781 -14.554688 9.363281 -14.640625 8.6875 -14.671875 L 8.6875 -15.484375 C 9.832031 -15.515625 10.789062 -15.738281 11.5625 -16.15625 C 12.34375 -16.582031 12.992188 -17.125 13.515625 -17.78125 L 17.453125 -22.78125 C 18.347656 -23.925781 18.957031 -24.894531 19.28125 -25.6875 C 19.613281 -26.476562 19.601562 -27.082031 19.25 -27.5 C 18.894531 -27.925781 18.144531 -28.15625 17 -28.1875 L 17 -29 C 17.519531 -28.976562 18.050781 -28.957031 18.59375 -28.9375 C 19.144531 -28.925781 19.6875 -28.914062 20.21875 -28.90625 C 20.75 -28.894531 21.25 -28.890625 21.71875 -28.890625 C 22.425781 -28.890625 23.078125 -28.898438 23.671875 -28.921875 C 24.273438 -28.953125 24.785156 -28.976562 25.203125 -29 Z M 12.171875 -29 L 12.171875 -28.1875 C 11.242188 -28.15625 10.539062 -28.050781 10.0625 -27.875 C 9.582031 -27.695312 9.257812 -27.367188 9.09375 -26.890625 C 8.925781 -26.410156 8.84375 -25.664062 8.84375 -24.65625 L 8.84375 -4.34375 C 8.84375 -3.363281 8.925781 -2.625 9.09375 -2.125 C 9.257812 -1.632812 9.582031 -1.304688 10.0625 -1.140625 C 10.539062 -0.984375 11.242188 -0.875 12.171875 -0.8125 L 12.171875 0 C 11.535156 -0.0507812 10.75 -0.0820312 9.8125 -0.09375 C 8.875 -0.113281 7.925781 -0.125 6.96875 -0.125 C 5.894531 -0.125 4.894531 -0.113281 3.96875 -0.09375 C 3.039062 -0.0820312 2.289062 -0.0507812 1.71875 0 L 1.71875 -0.8125 C 2.644531 -0.875 3.347656 -0.984375 3.828125 -1.140625 C 4.304688 -1.304688 4.628906 -1.632812 4.796875 -2.125 C 4.960938 -2.625 5.046875 -3.363281 5.046875 -4.34375 L 5.046875 -24.65625 C 5.046875 -25.664062 4.960938 -26.410156 4.796875 -26.890625 C 4.628906 -27.367188 4.304688 -27.695312 3.828125 -27.875 C 3.347656 -28.050781 2.644531 -28.15625 1.71875 -28.1875 L 1.71875 -29 C 2.289062 -28.976562 3.039062 -28.953125 3.96875 -28.921875 C 4.894531 -28.898438 5.894531 -28.890625 6.96875 -28.890625 C 7.925781 -28.890625 8.875 -28.898438 9.8125 -28.921875 C 10.75 -28.953125 11.535156 -28.976562 12.171875 -29 Z M 12.171875 -29 "/></g></g></g><g fill="#000000" fill-opacity="1"><g transform="translate(139.117939, 51.745404)"><g><path d="M 24.25 -29 C 24.144531 -27.96875 24.070312 -26.96875 24.03125 -26 C 23.988281 -25.03125 23.96875 -24.285156 23.96875 -23.765625 C 23.96875 -23.109375 23.976562 -22.492188 24 -21.921875 C 24.03125 -21.347656 24.0625 -20.84375 24.09375 -20.40625 L 23.140625 -20.40625 C 22.953125 -22.3125 22.691406 -23.816406 22.359375 -24.921875 C 22.035156 -26.035156 21.460938 -26.835938 20.640625 -27.328125 C 19.828125 -27.816406 18.5625 -28.0625 16.84375 -28.0625 L 14.625 -28.0625 L 14.625 -4.75 C 14.625 -3.65625 14.722656 -2.832031 14.921875 -2.28125 C 15.128906 -1.738281 15.535156 -1.375 16.140625 -1.1875 C 16.742188 -1 17.617188 -0.875 18.765625 -0.8125 L 18.765625 0 C 18.054688 -0.0507812 17.15625 -0.0820312 16.0625 -0.09375 C 14.96875 -0.113281 13.859375 -0.125 12.734375 -0.125 C 11.503906 -0.125 10.347656 -0.113281 9.265625 -0.09375 C 8.191406 -0.0820312 7.328125 -0.0507812 6.671875 0 L 6.671875 -0.8125 C 7.828125 -0.875 8.703125 -1 9.296875 -1.1875 C 9.898438 -1.375 10.300781 -1.738281 10.5 -2.28125 C 10.707031 -2.832031 10.8125 -3.65625 10.8125 -4.75 L 10.8125 -28.0625 L 8.609375 -28.0625 C 6.910156 -28.0625 5.644531 -27.816406 4.8125 -27.328125 C 3.976562 -26.835938 3.394531 -26.035156 3.0625 -24.921875 C 2.738281 -23.816406 2.484375 -22.3125 2.296875 -20.40625 L 1.359375 -20.40625 C 1.410156 -20.84375 1.441406 -21.347656 1.453125 -21.921875 C 1.460938 -22.492188 1.46875 -23.109375 1.46875 -23.765625 C 1.46875 -24.285156 1.445312 -25.03125 1.40625 -26 C 1.375 -26.96875 1.300781 -27.96875 1.1875 -29 C 2.332031 -28.976562 3.582031 -28.953125 4.9375 -28.921875 C 6.289062 -28.898438 7.648438 -28.890625 9.015625 -28.890625 C 10.378906 -28.890625 11.617188 -28.890625 12.734375 -28.890625 C 13.859375 -28.890625 15.097656 -28.890625 16.453125 -28.890625 C 17.804688 -28.890625 19.164062 -28.898438 20.53125 -28.921875 C 21.894531 -28.953125 23.132812 -28.976562 24.25 -29 Z M 24.25 -29 "/></g></g></g><g fill="#000000" fill-opacity="1"><g transform="translate(164.547685, 51.745404)"><g><path d="M 13.234375 -29.203125 L 23.234375 -3.4375 C 23.640625 -2.40625 24.101562 -1.71875 24.625 -1.375 C 25.144531 -1.03125 25.625 -0.84375 26.0625 -0.8125 L 26.0625 0 C 25.507812 -0.0507812 24.835938 -0.0820312 24.046875 -0.09375 C 23.253906 -0.113281 22.460938 -0.125 21.671875 -0.125 C 20.609375 -0.125 19.609375 -0.113281 18.671875 -0.09375 C 17.742188 -0.0820312 16.992188 -0.0507812 16.421875 0 L 16.421875 -0.8125 C 17.816406 -0.875 18.707031 -1.113281 19.09375 -1.53125 C 19.476562 -1.957031 19.394531 -2.867188 18.84375 -4.265625 L 11.21875 -24.625 L 11.875 -25.15625 L 4.75 -6.640625 C 4.3125 -5.546875 4.050781 -4.625 3.96875 -3.875 C 3.882812 -3.125 3.957031 -2.53125 4.1875 -2.09375 C 4.425781 -1.65625 4.828125 -1.335938 5.390625 -1.140625 C 5.953125 -0.953125 6.65625 -0.84375 7.5 -0.8125 L 7.5 0 C 6.726562 -0.0507812 5.925781 -0.0820312 5.09375 -0.09375 C 4.257812 -0.113281 3.488281 -0.125 2.78125 -0.125 C 2.101562 -0.125 1.523438 -0.113281 1.046875 -0.09375 C 0.566406 -0.0820312 0.125 -0.0507812 -0.28125 0 L -0.28125 -0.8125 C 0.257812 -0.957031 0.816406 -1.28125 1.390625 -1.78125 C 1.960938 -2.289062 2.484375 -3.160156 2.953125 -4.390625 L 12.578125 -29.203125 C 12.679688 -29.203125 12.785156 -29.203125 12.890625 -29.203125 C 13.003906 -29.203125 13.117188 -29.203125 13.234375 -29.203125 Z M 18.234375 -11.796875 L 18.234375 -10.984375 L 6.015625 -10.984375 L 6.4375 -11.796875 Z M 18.234375 -11.796875 "/></g></g></g><g fill="#000000" fill-opacity="1"><g transform="translate(190.34598, 51.745404)"><g><path d="M 12.171875 -29 L 12.171875 -28.1875 C 11.242188 -28.15625 10.539062 -28.050781 10.0625 -27.875 C 9.582031 -27.695312 9.257812 -27.367188 9.09375 -26.890625 C 8.925781 -26.410156 8.84375 -25.664062 8.84375 -24.65625 L 8.84375 -4.34375 C 8.84375 -3.363281 8.925781 -2.625 9.09375 -2.125 C 9.257812 -1.632812 9.582031 -1.304688 10.0625 -1.140625 C 10.539062 -0.984375 11.242188 -0.875 12.171875 -0.8125 L 12.171875 0 C 11.535156 -0.0507812 10.75 -0.0820312 9.8125 -0.09375 C 8.875 -0.113281 7.925781 -0.125 6.96875 -0.125 C 5.894531 -0.125 4.894531 -0.113281 3.96875 -0.09375 C 3.039062 -0.0820312 2.289062 -0.0507812 1.71875 0 L 1.71875 -0.8125 C 2.644531 -0.875 3.347656 -0.984375 3.828125 -1.140625 C 4.304688 -1.304688 4.628906 -1.632812 4.796875 -2.125 C 4.960938 -2.625 5.046875 -3.363281 5.046875 -4.34375 L 5.046875 -24.65625 C 5.046875 -25.664062 4.960938 -26.410156 4.796875 -26.890625 C 4.628906 -27.367188 4.304688 -27.695312 3.828125 -27.875 C 3.347656 -28.050781 2.644531 -28.15625 1.71875 -28.1875 L 1.71875 -29 C 2.289062 -28.976562 3.039062 -28.953125 3.96875 -28.921875 C 4.894531 -28.898438 5.894531 -28.890625 6.96875 -28.890625 C 7.925781 -28.890625 8.875 -28.898438 9.8125 -28.921875 C 10.75 -28.953125 11.535156 -28.976562 12.171875 -29 Z M 12.171875 -29 "/></g></g></g><g fill="#000000" fill-opacity="1"><g transform="translate(204.227908, 51.745404)"><g><path d="M 12.171875 -29 L 12.171875 -28.1875 C 11.242188 -28.15625 10.539062 -28.050781 10.0625 -27.875 C 9.582031 -27.695312 9.257812 -27.367188 9.09375 -26.890625 C 8.925781 -26.410156 8.84375 -25.664062 8.84375 -24.65625 L 8.84375 -4.34375 C 8.84375 -3.363281 8.925781 -2.625 9.09375 -2.125 C 9.257812 -1.632812 9.582031 -1.3125 10.0625 -1.15625 C 10.539062 -1.007812 11.242188 -0.9375 12.171875 -0.9375 L 15.15625 -0.9375 C 16.4375 -0.9375 17.476562 -1.070312 18.28125 -1.34375 C 19.09375 -1.625 19.738281 -2.054688 20.21875 -2.640625 C 20.695312 -3.222656 21.054688 -4.003906 21.296875 -4.984375 C 21.546875 -5.972656 21.738281 -7.179688 21.875 -8.609375 L 22.8125 -8.609375 C 22.738281 -7.753906 22.703125 -6.632812 22.703125 -5.25 C 22.703125 -4.726562 22.71875 -3.984375 22.75 -3.015625 C 22.789062 -2.046875 22.867188 -1.039062 22.984375 0 C 21.585938 -0.0507812 20.015625 -0.0820312 18.265625 -0.09375 C 16.523438 -0.113281 14.972656 -0.125 13.609375 -0.125 C 13.003906 -0.125 12.226562 -0.125 11.28125 -0.125 C 10.34375 -0.125 9.328125 -0.113281 8.234375 -0.09375 C 7.140625 -0.0820312 6.03125 -0.0703125 4.90625 -0.0625 C 3.789062 -0.0507812 2.726562 -0.03125 1.71875 0 L 1.71875 -0.8125 C 2.644531 -0.875 3.347656 -0.984375 3.828125 -1.140625 C 4.304688 -1.304688 4.628906 -1.632812 4.796875 -2.125 C 4.960938 -2.625 5.046875 -3.363281 5.046875 -4.34375 L 5.046875 -24.65625 C 5.046875 -25.664062 4.960938 -26.410156 4.796875 -26.890625 C 4.628906 -27.367188 4.304688 -27.695312 3.828125 -27.875 C 3.347656 -28.050781 2.644531 -28.15625 1.71875 -28.1875 L 1.71875 -29 C 2.289062 -28.976562 3.039062 -28.953125 3.96875 -28.921875 C 4.894531 -28.898438 5.894531 -28.890625 6.96875 -28.890625 C 7.925781 -28.890625 8.875 -28.898438 9.8125 -28.921875 C 10.75 -28.953125 11.535156 -28.976562 12.171875 -29 Z M 12.171875 -29 "/></g></g></g><g fill="#000000" fill-opacity="1"><g transform="translate(228.306302, 51.745404)"><g/></g></g><g fill="#000000" fill-opacity="1"><g transform="translate(238.502769, 51.745404)"><g><path d="M 33.96875 -29 L 33.96875 -28.1875 C 33.03125 -28.15625 32.320312 -28.050781 31.84375 -27.875 C 31.375 -27.695312 31.054688 -27.367188 30.890625 -26.890625 C 30.722656 -26.410156 30.640625 -25.664062 30.640625 -24.65625 L 30.640625 -4.34375 C 30.640625 -3.363281 30.722656 -2.625 30.890625 -2.125 C 31.054688 -1.632812 31.375 -1.304688 31.84375 -1.140625 C 32.320312 -0.984375 33.03125 -0.875 33.96875 -0.8125 L 33.96875 0 C 33.332031 -0.0507812 32.539062 -0.0820312 31.59375 -0.09375 C 30.65625 -0.113281 29.710938 -0.125 28.765625 -0.125 C 27.691406 -0.125 26.691406 -0.113281 25.765625 -0.09375 C 24.835938 -0.0820312 24.085938 -0.0507812 23.515625 0 L 23.515625 -0.8125 C 24.441406 -0.875 25.144531 -0.984375 25.625 -1.140625 C 26.101562 -1.304688 26.421875 -1.632812 26.578125 -2.125 C 26.742188 -2.625 26.828125 -3.363281 26.828125 -4.34375 L 26.828125 -26.875 L 27 -26.75 L 16.96875 0.203125 L 16.3125 0.203125 L 5.984375 -26.390625 L 5.984375 -4.75 C 5.984375 -3.769531 6.070312 -3 6.25 -2.4375 C 6.425781 -1.875 6.78125 -1.476562 7.3125 -1.25 C 7.84375 -1.019531 8.640625 -0.875 9.703125 -0.8125 L 9.703125 0 C 9.210938 -0.0507812 8.570312 -0.0820312 7.78125 -0.09375 C 6.988281 -0.113281 6.238281 -0.125 5.53125 -0.125 C 4.84375 -0.125 4.148438 -0.113281 3.453125 -0.09375 C 2.765625 -0.0820312 2.1875 -0.0507812 1.71875 0 L 1.71875 -0.8125 C 2.644531 -0.875 3.347656 -1.019531 3.828125 -1.25 C 4.304688 -1.476562 4.628906 -1.875 4.796875 -2.4375 C 4.960938 -3 5.046875 -3.769531 5.046875 -4.75 L 5.046875 -24.65625 C 5.046875 -25.664062 4.960938 -26.410156 4.796875 -26.890625 C 4.628906 -27.367188 4.304688 -27.695312 3.828125 -27.875 C 3.347656 -28.050781 2.644531 -28.15625 1.71875 -28.1875 L 1.71875 -29 C 2.1875 -28.976562 2.765625 -28.953125 3.453125 -28.921875 C 4.148438 -28.898438 4.84375 -28.890625 5.53125 -28.890625 C 6.132812 -28.890625 6.753906 -28.898438 7.390625 -28.921875 C 8.035156 -28.953125 8.578125 -28.976562 9.015625 -29 L 18.3125 -4.5 L 17.609375 -4.171875 L 26.828125 -28.890625 C 27.160156 -28.890625 27.484375 -28.890625 27.796875 -28.890625 C 28.109375 -28.890625 28.429688 -28.890625 28.765625 -28.890625 C 29.710938 -28.890625 30.65625 -28.898438 31.59375 -28.921875 C 32.539062 -28.953125 33.332031 -28.976562 33.96875 -29 Z M 33.96875 -29 "/></g></g></g><g fill="#000000" fill-opacity="1"><g transform="translate(274.169923, 51.745404)"><g><path d="M 12.171875 -29 L 12.171875 -28.1875 C 11.242188 -28.15625 10.539062 -28.050781 10.0625 -27.875 C 9.582031 -27.695312 9.257812 -27.367188 9.09375 -26.890625 C 8.925781 -26.410156 8.84375 -25.664062 8.84375 -24.65625 L 8.84375 -4.34375 C 8.84375 -3.363281 8.925781 -2.625 9.09375 -2.125 C 9.257812 -1.632812 9.582031 -1.304688 10.0625 -1.140625 C 10.539062 -0.984375 11.242188 -0.875 12.171875 -0.8125 L 12.171875 0 C 11.535156 -0.0507812 10.75 -0.0820312 9.8125 -0.09375 C 8.875 -0.113281 7.925781 -0.125 6.96875 -0.125 C 5.894531 -0.125 4.894531 -0.113281 3.96875 -0.09375 C 3.039062 -0.0820312 2.289062 -0.0507812 1.71875 0 L 1.71875 -0.8125 C 2.644531 -0.875 3.347656 -0.984375 3.828125 -1.140625 C 4.304688 -1.304688 4.628906 -1.632812 4.796875 -2.125 C 4.960938 -2.625 5.046875 -3.363281 5.046875 -4.34375 L 5.046875 -24.65625 C 5.046875 -25.664062 4.960938 -26.410156 4.796875 -26.890625 C 4.628906 -27.367188 4.304688 -27.695312 3.828125 -27.875 C 3.347656 -28.050781 2.644531 -28.15625 1.71875 -28.1875 L 1.71875 -29 C 2.289062 -28.976562 3.039062 -28.953125 3.96875 -28.921875 C 4.894531 -28.898438 5.894531 -28.890625 6.96875 -28.890625 C 7.925781 -28.890625 8.875 -28.898438 9.8125 -28.921875 C 10.75 -28.953125 11.535156 -28.976562 12.171875 -29 Z M 12.171875 -29 "/></g></g></g><g fill="#000000" fill-opacity="1"><g transform="translate(288.05185, 51.745404)"><g><path d="M 10 -29 L 10 -28.140625 C 8.632812 -28.140625 7.800781 -27.992188 7.5 -27.703125 C 7.195312 -27.421875 7.238281 -26.96875 7.625 -26.34375 L 22.9375 -2.90625 C 23.457031 -2.113281 23.894531 -1.585938 24.25 -1.328125 C 24.601562 -1.066406 25.082031 -0.910156 25.6875 -0.859375 L 25.6875 0 C 25.332031 -0.03125 24.832031 -0.0625 24.1875 -0.09375 C 23.550781 -0.132812 22.875 -0.15625 22.15625 -0.15625 C 21.070312 -0.15625 19.972656 -0.132812 18.859375 -0.09375 C 17.753906 -0.0625 16.929688 -0.03125 16.390625 0 L 16.390625 -0.859375 C 17.753906 -0.859375 18.625 -0.941406 19 -1.109375 C 19.382812 -1.273438 19.390625 -1.65625 19.015625 -2.25 L 3.4375 -26.09375 C 2.914062 -26.882812 2.484375 -27.414062 2.140625 -27.6875 C 1.804688 -27.96875 1.328125 -28.117188 0.703125 -28.140625 L 0.703125 -29 C 1.054688 -28.976562 1.5625 -28.945312 2.21875 -28.90625 C 2.875 -28.863281 3.539062 -28.84375 4.21875 -28.84375 C 5.34375 -28.84375 6.394531 -28.863281 7.375 -28.90625 C 8.351562 -28.945312 9.226562 -28.976562 10 -29 Z M 12.25 -14.953125 C 12.25 -14.953125 12.273438 -14.863281 12.328125 -14.6875 C 12.378906 -14.507812 12.441406 -14.332031 12.515625 -14.15625 C 12.585938 -13.976562 12.625 -13.890625 12.625 -13.890625 L 7.578125 -6.390625 C 6.597656 -4.910156 6.085938 -3.773438 6.046875 -2.984375 C 6.003906 -2.191406 6.3125 -1.640625 6.96875 -1.328125 C 7.625 -1.015625 8.523438 -0.84375 9.671875 -0.8125 L 9.671875 0 C 9.285156 -0.03125 8.847656 -0.0507812 8.359375 -0.0625 C 7.867188 -0.0703125 7.367188 -0.0820312 6.859375 -0.09375 C 6.359375 -0.113281 5.867188 -0.125 5.390625 -0.125 C 4.910156 -0.125 4.492188 -0.125 4.140625 -0.125 C 3.453125 -0.125 2.800781 -0.113281 2.1875 -0.09375 C 1.570312 -0.0820312 1.0625 -0.0507812 0.65625 0 L 0.65625 -0.8125 C 1.5 -0.957031 2.289062 -1.34375 3.03125 -1.96875 C 3.769531 -2.59375 4.519531 -3.46875 5.28125 -4.59375 Z M 24.828125 -29 L 24.828125 -28.1875 C 23.984375 -28.070312 23.191406 -27.691406 22.453125 -27.046875 C 21.710938 -26.410156 20.960938 -25.535156 20.203125 -24.421875 L 13.609375 -14.578125 C 13.609375 -14.578125 13.566406 -14.753906 13.484375 -15.109375 C 13.398438 -15.472656 13.359375 -15.65625 13.359375 -15.65625 L 18.03125 -22.609375 C 19.007812 -24.085938 19.582031 -25.222656 19.75 -26.015625 C 19.914062 -26.804688 19.722656 -27.359375 19.171875 -27.671875 C 18.628906 -27.984375 17.785156 -28.15625 16.640625 -28.1875 L 16.640625 -29 C 17.148438 -28.976562 17.675781 -28.957031 18.21875 -28.9375 C 18.769531 -28.925781 19.3125 -28.914062 19.84375 -28.90625 C 20.375 -28.894531 20.875 -28.890625 21.34375 -28.890625 C 22.050781 -28.890625 22.707031 -28.898438 23.3125 -28.921875 C 23.914062 -28.953125 24.421875 -28.976562 24.828125 -29 Z M 24.828125 -29 "/></g></g></g><g fill="#000000" fill-opacity="1"><g transform="translate(314.013926, 51.745404)"><g><path d="M 22.15625 -29 C 22.050781 -28.050781 21.976562 -27.125 21.9375 -26.21875 C 21.894531 -25.320312 21.875 -24.640625 21.875 -24.171875 C 21.875 -23.679688 21.882812 -23.207031 21.90625 -22.75 C 21.9375 -22.300781 21.96875 -21.925781 22 -21.625 L 21.0625 -21.625 C 20.894531 -23.238281 20.660156 -24.515625 20.359375 -25.453125 C 20.054688 -26.398438 19.539062 -27.070312 18.8125 -27.46875 C 18.09375 -27.863281 17.007812 -28.0625 15.5625 -28.0625 L 12.171875 -28.0625 C 11.242188 -28.0625 10.539062 -27.984375 10.0625 -27.828125 C 9.582031 -27.679688 9.257812 -27.367188 9.09375 -26.890625 C 8.925781 -26.410156 8.84375 -25.664062 8.84375 -24.65625 L 8.84375 -4.34375 C 8.84375 -3.363281 8.925781 -2.625 9.09375 -2.125 C 9.257812 -1.632812 9.582031 -1.3125 10.0625 -1.15625 C 10.539062 -1.007812 11.242188 -0.9375 12.171875 -0.9375 L 15.15625 -0.9375 C 16.875 -0.9375 18.175781 -1.164062 19.0625 -1.625 C 19.957031 -2.09375 20.601562 -2.851562 21 -3.90625 C 21.394531 -4.957031 21.6875 -6.382812 21.875 -8.1875 L 22.8125 -8.1875 C 22.738281 -7.457031 22.703125 -6.476562 22.703125 -5.25 C 22.703125 -4.726562 22.71875 -3.984375 22.75 -3.015625 C 22.789062 -2.046875 22.867188 -1.039062 22.984375 0 C 21.585938 -0.0507812 20.015625 -0.0820312 18.265625 -0.09375 C 16.523438 -0.113281 14.972656 -0.125 13.609375 -0.125 C 13.003906 -0.125 12.226562 -0.125 11.28125 -0.125 C 10.34375 -0.125 9.328125 -0.113281 8.234375 -0.09375 C 7.140625 -0.0820312 6.03125 -0.0703125 4.90625 -0.0625 C 3.789062 -0.0507812 2.726562 -0.03125 1.71875 0 L 1.71875 -0.8125 C 2.644531 -0.875 3.347656 -0.984375 3.828125 -1.140625 C 4.304688 -1.304688 4.628906 -1.632812 4.796875 -2.125 C 4.960938 -2.625 5.046875 -3.363281 5.046875 -4.34375 L 5.046875 -24.65625 C 5.046875 -25.664062 4.960938 -26.410156 4.796875 -26.890625 C 4.628906 -27.367188 4.304688 -27.695312 3.828125 -27.875 C 3.347656 -28.050781 2.644531 -28.15625 1.71875 -28.1875 L 1.71875 -29 C 2.726562 -28.976562 3.789062 -28.957031 4.90625 -28.9375 C 6.03125 -28.925781 7.140625 -28.914062 8.234375 -28.90625 C 9.328125 -28.894531 10.34375 -28.890625 11.28125 -28.890625 C 12.226562 -28.890625 13.003906 -28.890625 13.609375 -28.890625 C 14.859375 -28.890625 16.28125 -28.894531 17.875 -28.90625 C 19.476562 -28.914062 20.90625 -28.945312 22.15625 -29 Z M 15.125 -15 C 15.125 -15 15.125 -14.859375 15.125 -14.578125 C 15.125 -14.304688 15.125 -14.171875 15.125 -14.171875 L 7.625 -14.171875 C 7.625 -14.171875 7.625 -14.304688 7.625 -14.578125 C 7.625 -14.859375 7.625 -15 7.625 -15 Z M 16.3125 -20.40625 C 16.195312 -18.84375 16.144531 -17.648438 16.15625 -16.828125 C 16.175781 -16.015625 16.1875 -15.265625 16.1875 -14.578125 C 16.1875 -13.898438 16.195312 -13.148438 16.21875 -12.328125 C 16.25 -11.515625 16.316406 -10.328125 16.421875 -8.765625 L 15.484375 -8.765625 C 15.378906 -9.640625 15.25 -10.492188 15.09375 -11.328125 C 14.945312 -12.160156 14.617188 -12.84375 14.109375 -13.375 C 13.609375 -13.90625 12.753906 -14.171875 11.546875 -14.171875 L 11.546875 -15 C 12.453125 -15 13.144531 -15.179688 13.625 -15.546875 C 14.101562 -15.910156 14.453125 -16.378906 14.671875 -16.953125 C 14.890625 -17.535156 15.035156 -18.132812 15.109375 -18.75 C 15.191406 -19.363281 15.273438 -19.914062 15.359375 -20.40625 Z M 16.3125 -20.40625 "/></g></g></g><g fill="#000000" fill-opacity="1"><g transform="translate(338.952259, 51.745404)"><g><path d="M 1.71875 -29 C 2.289062 -28.976562 3.039062 -28.953125 3.96875 -28.921875 C 4.894531 -28.898438 5.8125 -28.890625 6.71875 -28.890625 C 8 -28.890625 9.226562 -28.898438 10.40625 -28.921875 C 11.582031 -28.953125 12.414062 -28.96875 12.90625 -28.96875 C 15.113281 -28.96875 16.945312 -28.648438 18.40625 -28.015625 C 19.875 -27.390625 20.96875 -26.535156 21.6875 -25.453125 C 22.414062 -24.378906 22.78125 -23.175781 22.78125 -21.84375 C 22.78125 -21.019531 22.613281 -20.144531 22.28125 -19.21875 C 21.957031 -18.289062 21.390625 -17.414062 20.578125 -16.59375 C 19.773438 -15.769531 18.675781 -15.09375 17.28125 -14.5625 C 15.894531 -14.03125 14.132812 -13.765625 12 -13.765625 L 8.078125 -13.765625 L 8.078125 -14.578125 L 11.59375 -14.578125 C 13.53125 -14.578125 15.007812 -14.882812 16.03125 -15.5 C 17.0625 -16.113281 17.757812 -16.929688 18.125 -17.953125 C 18.5 -18.984375 18.6875 -20.128906 18.6875 -21.390625 C 18.6875 -23.546875 18.171875 -25.21875 17.140625 -26.40625 C 16.117188 -27.59375 14.363281 -28.1875 11.875 -28.1875 C 10.625 -28.1875 9.804688 -27.953125 9.421875 -27.484375 C 9.035156 -27.023438 8.84375 -26.082031 8.84375 -24.65625 L 8.84375 -4.34375 C 8.84375 -3.363281 8.925781 -2.625 9.09375 -2.125 C 9.257812 -1.632812 9.582031 -1.304688 10.0625 -1.140625 C 10.539062 -0.984375 11.242188 -0.875 12.171875 -0.8125 L 12.171875 0 C 11.535156 -0.0507812 10.75 -0.0820312 9.8125 -0.09375 C 8.875 -0.113281 7.925781 -0.125 6.96875 -0.125 C 5.894531 -0.125 4.894531 -0.113281 3.96875 -0.09375 C 3.039062 -0.0820312 2.289062 -0.0507812 1.71875 0 L 1.71875 -0.8125 C 2.644531 -0.875 3.347656 -0.984375 3.828125 -1.140625 C 4.304688 -1.304688 4.628906 -1.632812 4.796875 -2.125 C 4.960938 -2.625 5.046875 -3.363281 5.046875 -4.34375 L 5.046875 -24.65625 C 5.046875 -25.664062 4.960938 -26.410156 4.796875 -26.890625 C 4.628906 -27.367188 4.304688 -27.695312 3.828125 -27.875 C 3.347656 -28.050781 2.644531 -28.15625 1.71875 -28.1875 Z M 8.234375 -14.46875 C 9.710938 -14.40625 10.875 -14.335938 11.71875 -14.265625 C 12.5625 -14.203125 13.25 -14.144531 13.78125 -14.09375 C 14.3125 -14.039062 14.828125 -13.972656 15.328125 -13.890625 C 17.148438 -13.585938 18.460938 -13.03125 19.265625 -12.21875 C 20.078125 -11.414062 20.675781 -10.171875 21.0625 -8.484375 L 22.078125 -4.296875 C 22.347656 -3.097656 22.628906 -2.234375 22.921875 -1.703125 C 23.210938 -1.171875 23.65625 -0.914062 24.25 -0.9375 C 24.71875 -0.96875 25.109375 -1.117188 25.421875 -1.390625 C 25.734375 -1.660156 26.066406 -2.03125 26.421875 -2.5 L 27.046875 -2.046875 C 26.460938 -1.203125 25.863281 -0.550781 25.25 -0.09375 C 24.632812 0.351562 23.769531 0.578125 22.65625 0.578125 C 21.644531 0.578125 20.753906 0.273438 19.984375 -0.328125 C 19.222656 -0.929688 18.648438 -2.101562 18.265625 -3.84375 L 17.375 -7.953125 C 17.125 -9.117188 16.84375 -10.132812 16.53125 -11 C 16.21875 -11.863281 15.78125 -12.539062 15.21875 -13.03125 C 14.65625 -13.519531 13.828125 -13.765625 12.734375 -13.765625 L 8.3125 -13.765625 Z M 8.234375 -14.46875 "/></g></g></g></svg>